<svg xmlns="http://www.w3.org/2000/svg" viewBox="0 0 31.64 30.86"><title>자산 5</title><g id="레이어_2" data-name="레이어 2"><g id="레이어_1-2" data-name="레이어 1"><path d="M22.93,0a8.18,8.18,0,0,1,3.44.74,8.71,8.71,0,0,1,2.77,2,9.78,9.78,0,0,1,1.84,3,10.27,10.27,0,0,1,.66,3.71,11.17,11.17,0,0,1-1,4.61A20.25,20.25,0,0,1,28,18.46a54.28,54.28,0,0,1-4.28,4.65c-1.67,1.62-3.51,3.44-5.54,5.44l-2.31,2.31-2.3-2.27q-3.06-3-5.55-5.48a54.28,54.28,0,0,1-4.28-4.65A19.86,19.86,0,0,1,1,14.1,11.17,11.17,0,0,1,0,9.49,10.27,10.27,0,0,1,.66,5.78a9.78,9.78,0,0,1,1.84-3,8.71,8.71,0,0,1,2.77-2A8.18,8.18,0,0,1,8.71,0a8.53,8.53,0,0,1,3.93,1,9.37,9.37,0,0,1,3.18,2.65A9.37,9.37,0,0,1,19,1,8.53,8.53,0,0,1,22.93,0Z"/></g></g></svg>